<svg width="355" height="355" viewBox="0 0 355 355" fill="none" xmlns="http://www.w3.org/2000/svg">
<g clip-path="url(#clip0_4_2)">
<path d="M177.5 0C79.4715 0 0 79.4715 0 177.5C0 275.529 79.4715 355 177.5 355C275.529 355 355 275.529 355 177.5C355 79.4715 275.529 0 177.5 0ZM177.5 325.416C95.8098 325.416 29.5836 259.19 29.5836 177.5C29.5836 95.8098 95.8098 29.5836 177.5 29.5836C259.19 29.5836 325.416 95.8098 325.416 177.5C325.416 259.19 259.19 325.416 177.5 325.416Z" fill="black"/>
<path d="M236.666 147.916C253.011 147.916 266.25 134.678 266.25 118.333C266.25 101.988 253.012 88.75 236.666 88.75C220.322 88.75 207.083 101.988 207.083 118.334C207.084 134.678 220.322 147.916 236.666 147.916Z" fill="black"/>
<path d="M266.25 177.5C258.081 177.5 251.459 184.122 251.459 192.291C251.459 231.19 216.398 266.25 177.5 266.25C138.602 266.25 103.541 231.19 103.541 192.291C103.541 184.122 96.9192 177.5 88.75 177.5C80.5808 177.5 73.9586 184.122 73.9586 192.291C73.9586 247.528 122.264 295.833 177.5 295.833C232.736 295.833 281.041 247.527 281.041 192.291C281.041 184.122 274.419 177.5 266.25 177.5Z" fill="black"/>
<path d="M103.541 133.125H133.125C141.294 133.125 147.916 126.503 147.916 118.334C147.916 110.164 141.294 103.542 133.125 103.542H103.541C95.3723 103.542 88.75 110.164 88.75 118.334C88.75 126.503 95.3723 133.125 103.541 133.125Z" fill="black"/>
</g>
<defs>
<clipPath id="clip0_4_2">
<rect width="355" height="355" fill="white"/>
</clipPath>
</defs>
</svg>
