<svg width="311" height="355" viewBox="0 0 311 355" fill="none" xmlns="http://www.w3.org/2000/svg">
<path d="M199.875 310.625H111.125C98.8609 310.625 88.9375 320.548 88.9375 332.812C88.9375 345.077 98.8609 355 111.125 355H199.875C212.139 355 222.062 345.077 222.062 332.812C222.062 320.548 212.139 310.625 199.875 310.625Z" fill="black"/>
<path d="M155.5 0C69.7398 0 0.1875 69.5523 0.1875 155.312C0.1875 207.703 26.2301 253.919 65.9901 282.025C69.1795 284.277 74.377 288.438 88.9375 288.438C103.498 288.438 209.926 288.438 222.062 288.438C234.199 288.438 241.804 284.3 244.988 282.047C284.77 253.941 310.812 207.703 310.812 155.312C310.812 69.5523 241.26 0 155.5 0ZM177.688 244.062H133.312V133.125C133.312 120.861 143.236 110.938 155.5 110.938C167.764 110.938 177.688 120.861 177.688 133.125V244.062Z" fill="black"/>
</svg>
